<svg width="50" height="50" viewBox="0 0 50 50" fill="none" xmlns="http://www.w3.org/2000/svg">
<g clip-path="url(#clip0_2084_30566)">
<path d="M37.4803 12.5001C30.584 12.5215 25 18.1097 25 25.0001C25 18.1097 19.416 12.5213 12.5197 12.5C19.4159 12.4787 25 6.8904 25 0C25 6.8904 30.5839 12.4789 37.4803 12.5001Z" fill="#82B0FF"/>
<path d="M24.9605 25.0001C18.0643 25.0215 12.4803 30.6097 12.4803 37.5001C12.4803 30.6097 6.89628 25.0213 0 25C6.89616 24.9787 12.4803 19.3904 12.4803 12.5C12.4803 19.3904 18.0642 24.9789 24.9605 25.0001Z" fill="#82B0FF"/>
<path d="M50 25.0001C43.1038 25.0215 37.5197 30.6097 37.5197 37.5001C37.5197 30.6097 31.9358 25.0213 25.0395 25C31.9356 24.9787 37.5197 19.3904 37.5197 12.5C37.5197 19.3904 43.1037 24.9789 50 25.0001Z" fill="#82B0FF"/>
<path d="M37.4803 37.5001C30.584 37.5215 25 43.1097 25 50.0001C25 43.1097 19.416 37.5213 12.5197 37.5C19.4159 37.4787 25 31.8905 25 25.0001C25 31.8905 30.5839 37.4789 37.4803 37.5001Z" fill="#82B0FF"/>
</g>
<defs>
<clipPath id="clip0_2084_30566">
<rect width="50" height="50" fill="white"/>
</clipPath>
</defs>
</svg>
